<svg width="30" height="30" viewBox="0 0 30 30" fill="none" xmlns="http://www.w3.org/2000/svg">
<circle cx="15" cy="15" r="15" fill="#E6E0FF"/>
<path d="M17.9833 15C17.9833 16.65 16.65 17.9833 15 17.9833C13.35 17.9833 12.0167 16.65 12.0167 15C12.0167 13.35 13.35 12.0167 15 12.0167C16.65 12.0167 17.9833 13.35 17.9833 15Z" stroke="#755AE2" stroke-width="1.5" stroke-linecap="round" stroke-linejoin="round"/>
<path d="M15 21.8917C17.9417 21.8917 20.6833 20.1583 22.5917 17.1583C23.3417 15.9833 23.3417 14.0083 22.5917 12.8333C20.6833 9.83334 17.9417 8.10001 15 8.10001C12.0583 8.10001 9.31667 9.83334 7.40834 12.8333C6.65834 14.0083 6.65834 15.9833 7.40834 17.1583C9.31667 20.1583 12.0583 21.8917 15 21.8917Z" stroke="#755AE2" stroke-width="1.5" stroke-linecap="round" stroke-linejoin="round"/>
</svg>
