<svg width="192" height="23" viewBox="0 0 192 23" fill="none" xmlns="http://www.w3.org/2000/svg">
<path d="M98.75 18.216C97.562 18.216 96.524 17.946 95.636 17.406C94.748 16.866 94.058 16.11 93.566 15.138C93.074 14.166 92.828 13.032 92.828 11.736C92.828 10.452 93.08 9.318 93.584 8.334C94.088 7.35 94.802 6.582 95.726 6.03C96.662 5.466 97.766 5.184 99.038 5.184C100.478 5.184 101.678 5.532 102.638 6.228C103.598 6.924 104.222 7.884 104.51 9.108H102.35C102.158 8.436 101.78 7.908 101.216 7.524C100.652 7.14 99.926 6.948 99.038 6.948C97.718 6.948 96.68 7.374 95.924 8.226C95.168 9.078 94.79 10.254 94.79 11.754C94.79 13.254 95.162 14.424 95.906 15.264C96.65 16.104 97.64 16.524 98.876 16.524C100.124 16.524 101.06 16.17 101.684 15.462C102.32 14.754 102.692 13.812 102.8 12.636H99.38V11.16H104.726V18H102.98L102.818 16.146C102.398 16.806 101.87 17.316 101.234 17.676C100.598 18.036 99.77 18.216 98.75 18.216ZM110.906 18.216C110.03 18.216 109.25 18.024 108.566 17.64C107.894 17.244 107.366 16.698 106.982 16.002C106.598 15.306 106.406 14.496 106.406 13.572C106.406 12.636 106.592 11.814 106.964 11.106C107.348 10.398 107.876 9.846 108.548 9.45C109.232 9.054 110.024 8.856 110.924 8.856C111.8 8.856 112.562 9.054 113.21 9.45C113.858 9.834 114.362 10.35 114.722 10.998C115.082 11.646 115.262 12.36 115.262 13.14C115.262 13.26 115.256 13.392 115.244 13.536C115.244 13.668 115.238 13.818 115.226 13.986H108.278C108.338 14.85 108.62 15.51 109.124 15.966C109.64 16.41 110.234 16.632 110.906 16.632C111.446 16.632 111.896 16.512 112.256 16.272C112.628 16.02 112.904 15.684 113.084 15.264H114.992C114.752 16.104 114.272 16.806 113.552 17.37C112.844 17.934 111.962 18.216 110.906 18.216ZM110.906 10.422C110.27 10.422 109.706 10.614 109.214 10.998C108.722 11.37 108.422 11.934 108.314 12.69H113.354C113.318 11.994 113.072 11.442 112.616 11.034C112.16 10.626 111.59 10.422 110.906 10.422ZM120.517 18C119.641 18 118.945 17.79 118.429 17.37C117.913 16.938 117.655 16.176 117.655 15.084V10.674H116.125V9.072H117.655L117.889 6.804H119.563V9.072H122.083V10.674H119.563V15.084C119.563 15.576 119.665 15.918 119.869 16.11C120.085 16.29 120.451 16.38 120.967 16.38H121.993V18H120.517ZM123.81 18V5.04H125.718V18H123.81ZM128.974 7.38C128.614 7.38 128.314 7.272 128.074 7.056C127.846 6.828 127.732 6.546 127.732 6.21C127.732 5.874 127.846 5.598 128.074 5.382C128.314 5.154 128.614 5.04 128.974 5.04C129.334 5.04 129.628 5.154 129.856 5.382C130.096 5.598 130.216 5.874 130.216 6.21C130.216 6.546 130.096 6.828 129.856 7.056C129.628 7.272 129.334 7.38 128.974 7.38ZM128.02 18V9.072H129.928V18H128.02ZM132.207 18V9.072H133.899L134.043 10.638C134.319 10.086 134.721 9.654 135.249 9.342C135.789 9.018 136.407 8.856 137.103 8.856C138.183 8.856 139.029 9.192 139.641 9.864C140.265 10.536 140.577 11.538 140.577 12.87V18H138.687V13.068C138.687 11.34 137.979 10.476 136.563 10.476C135.855 10.476 135.267 10.728 134.799 11.232C134.343 11.736 134.115 12.456 134.115 13.392V18H132.207ZM142.584 18V5.04H144.492V12.762L147.912 9.072H150.198L146.4 13.122L150.756 18H148.344L144.492 13.428V18H142.584ZM155.485 18.216C154.609 18.216 153.829 18.024 153.145 17.64C152.473 17.244 151.945 16.698 151.561 16.002C151.177 15.306 150.985 14.496 150.985 13.572C150.985 12.636 151.171 11.814 151.543 11.106C151.927 10.398 152.455 9.846 153.127 9.45C153.811 9.054 154.603 8.856 155.503 8.856C156.379 8.856 157.141 9.054 157.789 9.45C158.437 9.834 158.941 10.35 159.301 10.998C159.661 11.646 159.841 12.36 159.841 13.14C159.841 13.26 159.835 13.392 159.823 13.536C159.823 13.668 159.817 13.818 159.805 13.986H152.857C152.917 14.85 153.199 15.51 153.703 15.966C154.219 16.41 154.813 16.632 155.485 16.632C156.025 16.632 156.475 16.512 156.835 16.272C157.207 16.02 157.483 15.684 157.663 15.264H159.571C159.331 16.104 158.851 16.806 158.131 17.37C157.423 17.934 156.541 18.216 155.485 18.216ZM155.485 10.422C154.849 10.422 154.285 10.614 153.793 10.998C153.301 11.37 153.001 11.934 152.893 12.69H157.933C157.897 11.994 157.651 11.442 157.195 11.034C156.739 10.626 156.169 10.422 155.485 10.422ZM165.649 18.216C164.785 18.216 164.023 18.012 163.363 17.604C162.703 17.196 162.187 16.638 161.815 15.93C161.443 15.222 161.257 14.418 161.257 13.518C161.257 12.618 161.443 11.82 161.815 11.124C162.187 10.416 162.703 9.864 163.363 9.468C164.035 9.06 164.803 8.856 165.667 8.856C166.375 8.856 166.993 8.994 167.521 9.27C168.061 9.546 168.481 9.936 168.781 10.44V5.04H170.689V18H168.979L168.781 16.614C168.493 17.034 168.097 17.406 167.593 17.73C167.089 18.054 166.441 18.216 165.649 18.216ZM165.991 16.56C166.807 16.56 167.473 16.278 167.989 15.714C168.517 15.15 168.781 14.424 168.781 13.536C168.781 12.636 168.517 11.91 167.989 11.358C167.473 10.794 166.807 10.512 165.991 10.512C165.175 10.512 164.503 10.794 163.975 11.358C163.447 11.91 163.183 12.636 163.183 13.536C163.183 14.124 163.303 14.646 163.543 15.102C163.783 15.558 164.113 15.918 164.533 16.182C164.965 16.434 165.451 16.56 165.991 16.56ZM173.611 18.108C173.251 18.108 172.951 17.994 172.711 17.766C172.483 17.526 172.369 17.244 172.369 16.92C172.369 16.584 172.483 16.302 172.711 16.074C172.951 15.834 173.251 15.714 173.611 15.714C173.971 15.714 174.265 15.834 174.493 16.074C174.721 16.302 174.835 16.584 174.835 16.92C174.835 17.244 174.721 17.526 174.493 17.766C174.265 17.994 173.971 18.108 173.611 18.108ZM175.779 18L180.423 5.4H182.511L187.119 18H185.103L184.023 14.922H178.875L177.795 18H175.779ZM179.415 13.41H183.483L181.449 7.668L179.415 13.41ZM188.636 18V5.4H190.544V18H188.636Z" fill="#0E0E2C"/>
<path d="M1.036 16V6.2H4.256C5.02133 6.2 5.65133 6.326 6.146 6.578C6.64067 6.83 7.00467 7.17067 7.238 7.6C7.48067 8.02933 7.602 8.51467 7.602 9.056C7.602 9.588 7.48533 10.0687 7.252 10.498C7.01867 10.9273 6.65467 11.2727 6.16 11.534C5.66533 11.786 5.03067 11.912 4.256 11.912H2.212V16H1.036ZM2.212 10.918H4.228C5.012 10.918 5.56733 10.7547 5.894 10.428C6.23 10.092 6.398 9.63467 6.398 9.056C6.398 8.468 6.23 8.01067 5.894 7.684C5.56733 7.348 5.012 7.18 4.228 7.18H2.212V10.918ZM13.3554 16.168C12.3941 16.168 11.5494 15.958 10.8214 15.538C10.1028 15.1087 9.53809 14.5113 9.12742 13.746C8.72609 12.9807 8.52542 12.0987 8.52542 11.1C8.52542 10.1013 8.72609 9.224 9.12742 8.468C9.53809 7.70267 10.1028 7.10533 10.8214 6.676C11.5494 6.24667 12.3941 6.032 13.3554 6.032C14.3261 6.032 15.1708 6.24667 15.8894 6.676C16.6174 7.10533 17.1821 7.70267 17.5834 8.468C17.9848 9.224 18.1854 10.1013 18.1854 11.1C18.1854 12.0987 17.9848 12.9807 17.5834 13.746C17.1821 14.5113 16.6174 15.1087 15.8894 15.538C15.1708 15.958 14.3261 16.168 13.3554 16.168ZM13.3554 15.132C14.0741 15.132 14.7041 14.9733 15.2454 14.656C15.7961 14.3293 16.2208 13.8673 16.5194 13.27C16.8274 12.6633 16.9814 11.94 16.9814 11.1C16.9814 10.26 16.8274 9.54133 16.5194 8.944C16.2208 8.34667 15.7961 7.88933 15.2454 7.572C14.7041 7.24533 14.0741 7.082 13.3554 7.082C12.6368 7.082 12.0021 7.24533 11.4514 7.572C10.9101 7.88933 10.4854 8.34667 10.1774 8.944C9.87876 9.54133 9.72942 10.26 9.72942 11.1C9.72942 11.94 9.87876 12.6633 10.1774 13.27C10.4854 13.8673 10.9101 14.3293 11.4514 14.656C12.0021 14.9733 12.6368 15.132 13.3554 15.132ZM21.3025 16.014L18.6145 6.2H19.8745L21.9885 14.614L24.3965 6.2H25.6985L28.0365 14.614L30.1785 6.2H31.4385L28.6945 16H27.3505L25.0125 7.908L22.6185 16L21.3025 16.014ZM32.5816 16V6.2H38.6436V7.166H33.7576V10.582H38.2236V11.534H33.7576V15.034H38.6436V16H32.5816ZM40.244 16V6.2H43.408C44.1733 6.2 44.7986 6.326 45.284 6.578C45.7693 6.83 46.1286 7.17533 46.362 7.614C46.5953 8.05267 46.712 8.538 46.712 9.07C46.712 9.686 46.544 10.2413 46.208 10.736C45.8813 11.2307 45.368 11.5807 44.668 11.786L46.81 16H45.424L43.436 11.954H43.352H41.42V16H40.244ZM41.42 11.03H43.324C44.08 11.03 44.6306 10.848 44.976 10.484C45.3213 10.12 45.494 9.65333 45.494 9.084C45.494 8.50533 45.3213 8.048 44.976 7.712C44.64 7.36667 44.0846 7.194 43.31 7.194H41.42V11.03ZM48.3028 16V6.2H54.3648V7.166H49.4788V10.582H53.9448V11.534H49.4788V15.034H54.3648V16H48.3028ZM55.9651 16V6.2H58.9751C60.7018 6.2 61.9711 6.63867 62.7831 7.516C63.6045 8.39333 64.0151 9.59733 64.0151 11.128C64.0151 12.6307 63.6045 13.8207 62.7831 14.698C61.9711 15.566 60.7018 16 58.9751 16H55.9651ZM57.1411 15.02H58.9471C59.8991 15.02 60.6551 14.866 61.2151 14.558C61.7845 14.2407 62.1905 13.7927 62.4331 13.214C62.6758 12.626 62.7971 11.9307 62.7971 11.128C62.7971 10.3067 62.6758 9.602 62.4331 9.014C62.1905 8.426 61.7845 7.97333 61.2151 7.656C60.6551 7.33867 59.8991 7.18 58.9471 7.18H57.1411V15.02ZM68.9383 16V6.2H72.3823C73.0729 6.2 73.6423 6.312 74.0903 6.536C74.5476 6.75067 74.8883 7.04933 75.1123 7.432C75.3363 7.80533 75.4483 8.22533 75.4483 8.692C75.4483 9.32667 75.2756 9.826 74.9303 10.19C74.5943 10.554 74.1883 10.806 73.7123 10.946C74.0763 11.0113 74.4076 11.156 74.7063 11.38C75.0049 11.604 75.2383 11.884 75.4063 12.22C75.5836 12.556 75.6723 12.9247 75.6723 13.326C75.6723 13.8207 75.5509 14.2733 75.3083 14.684C75.0656 15.0853 74.7063 15.4073 74.2303 15.65C73.7543 15.8833 73.1756 16 72.4943 16H68.9383ZM70.1143 10.484H72.2983C72.9236 10.484 73.4043 10.3393 73.7403 10.05C74.0763 9.75133 74.2443 9.34067 74.2443 8.818C74.2443 8.32333 74.0763 7.92667 73.7403 7.628C73.4136 7.32933 72.9189 7.18 72.2563 7.18H70.1143V10.484ZM70.1143 15.02H72.3683C73.0403 15.02 73.5583 14.866 73.9223 14.558C74.2863 14.2407 74.4683 13.802 74.4683 13.242C74.4683 12.6913 74.2769 12.2527 73.8943 11.926C73.5116 11.59 72.9936 11.422 72.3403 11.422H70.1143V15.02ZM79.1323 16V12.276L75.9403 6.2H77.2703L79.7203 11.156L82.1703 6.2H83.4863L80.3083 12.276V16H79.1323Z" fill="#8C8CA1"/>
</svg>
