<svg width="16" height="16" viewBox="0 0 16 16" fill="none" xmlns="http://www.w3.org/2000/svg">
<rect width="16" height="16" rx="8" fill="#755AE2"/>
<path d="M8.00003 6.28748L7.55419 7.06248C7.45419 7.23331 7.53753 7.37498 7.73336 7.37498H8.26253C8.46253 7.37498 8.54169 7.51664 8.44169 7.68748L8.00003 8.46248" stroke="white" stroke-width="0.5" stroke-linecap="round" stroke-linejoin="round"/>
<path d="M6.45836 10.5167V10.0334C5.50002 9.4542 4.71252 8.32503 4.71252 7.12503C4.71252 5.06253 6.60836 3.44587 8.75002 3.91253C9.69169 4.12087 10.5167 4.74587 10.9459 5.60837C11.8167 7.35837 10.9 9.2167 9.55419 10.0292V10.5125C9.55419 10.6334 9.60002 10.9125 9.15419 10.9125H6.85836C6.40002 10.9167 6.45836 10.7375 6.45836 10.5167Z" stroke="white" stroke-width="0.5" stroke-linecap="round" stroke-linejoin="round"/>
<path d="M6.54169 12.1666C7.49585 11.8958 8.50419 11.8958 9.45835 12.1666" stroke="white" stroke-width="0.5" stroke-linecap="round" stroke-linejoin="round"/>
</svg>
