<svg width="16" height="16" viewBox="0 0 16 16" fill="none" xmlns="http://www.w3.org/2000/svg">
<rect width="16" height="16" rx="8" fill="#755AE2"/>
<path d="M8 11.2292C6.45 11.2292 5.1875 9.96671 5.1875 8.41671V6.33337C5.1875 4.78337 6.45 3.52087 8 3.52087C9.55 3.52087 10.8125 4.78337 10.8125 6.33337V8.41671C10.8125 9.96671 9.55 11.2292 8 11.2292ZM8 4.14587C6.79583 4.14587 5.8125 5.12504 5.8125 6.33337V8.41671C5.8125 9.62504 6.79583 10.6042 8 10.6042C9.20417 10.6042 10.1875 9.62504 10.1875 8.41671V6.33337C10.1875 5.12504 9.20417 4.14587 8 4.14587Z" fill="white"/>
<path d="M8 12.4792C5.75833 12.4792 3.9375 10.6584 3.9375 8.41671V7.58337C3.9375 7.41254 4.07917 7.27087 4.25 7.27087C4.42083 7.27087 4.5625 7.41254 4.5625 7.58337V8.41671C4.5625 10.3125 6.10417 11.8542 8 11.8542C9.89583 11.8542 11.4375 10.3125 11.4375 8.41671V7.58337C11.4375 7.41254 11.5792 7.27087 11.75 7.27087C11.9208 7.27087 12.0625 7.41254 12.0625 7.58337V8.41671C12.0625 10.6584 10.2417 12.4792 8 12.4792Z" fill="white"/>
<path d="M9.08753 6.42912C9.0542 6.42912 9.0167 6.42495 8.9792 6.41245C8.30836 6.17078 7.57086 6.17078 6.90003 6.41245C6.7417 6.47078 6.56253 6.38745 6.5042 6.22495C6.44586 6.06245 6.5292 5.88328 6.6917 5.82495C7.50003 5.53328 8.38753 5.53328 9.19586 5.82495C9.35836 5.88328 9.4417 6.06245 9.38336 6.22495C9.33753 6.35412 9.2167 6.42912 9.08753 6.42912Z" fill="white"/>
<path d="M8.70834 7.67912C8.68334 7.67912 8.65417 7.67495 8.62501 7.66662C8.17917 7.54578 7.70834 7.54578 7.26251 7.66662C7.09167 7.71245 6.92501 7.61245 6.87917 7.44578C6.83334 7.27912 6.93334 7.10828 7.10001 7.06245C7.65417 6.91245 8.23751 6.91245 8.79167 7.06245C8.95834 7.10828 9.05834 7.27912 9.01251 7.44578C8.97084 7.59162 8.84584 7.67912 8.70834 7.67912Z" fill="white"/>
</svg>
