<svg width="16" height="16" viewBox="0 0 16 16" fill="none" xmlns="http://www.w3.org/2000/svg">
<rect width="16" height="16" rx="8" fill="#755AE2"/>
<path d="M11.3334 7.96335V8.26002C11.3334 9.44669 11.0367 9.74002 9.85335 9.74002H6.14669C4.96335 9.74002 4.66669 9.44335 4.66669 8.26002V6.14669C4.66669 4.96335 4.96335 4.66669 6.14669 4.66669H6.66669" stroke="white" stroke-width="0.3" stroke-linecap="round" stroke-linejoin="round"/>
<path d="M8 9.73999V11.3333" stroke="white" stroke-width="0.3" stroke-linecap="round" stroke-linejoin="round"/>
<path d="M4.66669 8.33331H11.3334" stroke="white" stroke-width="0.3" stroke-linecap="round" stroke-linejoin="round"/>
<path d="M6.5 11.3333H9.5" stroke="white" stroke-width="0.3" stroke-linecap="round" stroke-linejoin="round"/>
<path d="M9.95336 7.12332H8.36669C7.90669 7.12332 7.75336 6.81665 7.75336 6.50998V5.33665C7.75336 4.96998 8.05336 4.66998 8.42002 4.66998H9.95336C10.2934 4.66998 10.5667 4.94332 10.5667 5.28332V6.50998C10.5667 6.84998 10.2934 7.12332 9.95336 7.12332Z" stroke="white" stroke-width="0.3" stroke-linecap="round" stroke-linejoin="round"/>
<path d="M10.97 6.63997L10.5667 6.35664V5.43664L10.97 5.1533C11.17 5.01664 11.3333 5.09997 11.3333 5.3433V6.4533C11.3333 6.69664 11.17 6.77997 10.97 6.63997Z" stroke="white" stroke-width="0.3" stroke-linecap="round" stroke-linejoin="round"/>
</svg>
