<svg width="35" height="35" viewBox="0 0 35 35" fill="none" xmlns="http://www.w3.org/2000/svg">
<circle cx="17.5" cy="17.5" r="17.5" fill="#E6E0FF"/>
<path d="M25.5 17.9175V18.585C25.5 21.255 24.8325 21.915 22.17 21.915H13.83C11.1675 21.915 10.5 21.2475 10.5 18.585V13.83C10.5 11.1675 11.1675 10.5 13.83 10.5H15" stroke="#755AE2" stroke-width="1.5" stroke-linecap="round" stroke-linejoin="round"/>
<path d="M18 21.915V25.5" stroke="#755AE2" stroke-width="1.5" stroke-linecap="round" stroke-linejoin="round"/>
<path d="M10.5 18.75H25.5" stroke="#755AE2" stroke-width="1.5" stroke-linecap="round" stroke-linejoin="round"/>
<path d="M14.625 25.5H21.375" stroke="#755AE2" stroke-width="1.5" stroke-linecap="round" stroke-linejoin="round"/>
<path d="M22.395 16.0275H18.825C17.79 16.0275 17.445 15.3375 17.445 14.6475V12.0075C17.445 11.1825 18.12 10.5075 18.945 10.5075H22.395C23.16 10.5075 23.775 11.1225 23.775 11.8875V14.6475C23.775 15.4125 23.16 16.0275 22.395 16.0275Z" stroke="#755AE2" stroke-width="1.5" stroke-linecap="round" stroke-linejoin="round"/>
<path d="M24.6825 14.94L23.775 14.3025V12.2325L24.6825 11.595C25.1325 11.2875 25.5 11.475 25.5 12.0225V14.52C25.5 15.0675 25.1325 15.255 24.6825 14.94Z" stroke="#755AE2" stroke-width="1.5" stroke-linecap="round" stroke-linejoin="round"/>
</svg>
